# xmcd
#
# Track frame offsets:
#	150
#	6788
#	21128
#	33708
#	48799
#	61931
#	77502
#	92207
#	106587
#	122826
#
# Disc length: 1871
#
# Revision: 2
# Processed by: cddbd v1.5.2PL0 Copyright (c) Steve Scherf et al.
# Submitted via: kJams Lite (development) 1.0patch44.23
#
DISCID=6f074d0a
DTITLE=guitaraoke - ASKG5032
DYEAR=2004
DGENRE=Country
TTITLE0=Tuning Track guitaraoke - Tuning Track
TTITLE1=Williams, Hank guitaraoke - Your Cheatin' Heart
TTITLE2=Miller, Roger guitaraoke - King Of The Road
TTITLE3=Williams, Hank guitaraoke - Hey Good Lookin'
TTITLE4=Nelson, Willie and Waylon Jennings guitaraoke - Mammas Don't Let Your Babies Grow Up To Be Cowboys
TTITLE5=Lynn, Loretta guitaraoke - Coal Miner's Daughter
TTITLE6=Cash, Johnny guitaraoke - I Walk The Line
TTITLE7=Wynette, Tammy guitaraoke - Stand By Your Man
TTITLE8=Denver, John guitaraoke - Take Me Home, Country Roads
TTITLE9=Rogers, Kenny guitaraoke - Gambler, The
EXTD=
EXTT0=
EXTT1=
EXTT2=
EXTT3=
EXTT4=
EXTT5=
EXTT6=
EXTT7=
EXTT8=
EXTT9=
PLAYORDER=
